<svg width="25" height="22" viewBox="0 0 25 22" fill="none" xmlns="http://www.w3.org/2000/svg">
<path d="M4.79851 7.11237C2.25185 8.31986 0.5 10.8404 0.5 13.7542C0.5 15.4158 1.06975 16.9496 2.03174 18.1849L0.760312 21.1559C0.699548 21.3509 0.878102 21.5371 1.08412 21.4936L4.54105 20.268C5.62981 20.8343 6.87658 21.1559 8.20149 21.1559C9.95138 21.1559 11.565 20.595 12.8582 19.65M24.5 9.96721C24.5 12.0926 23.7713 14.0544 22.5408 15.6344L24.167 19.4344C24.2448 19.6839 24.0164 19.9221 23.7529 19.8664L19.3312 18.2988C17.9386 19.0232 16.3439 19.4344 14.6493 19.4344C9.20884 19.4344 4.79851 15.1958 4.79851 9.96721C4.79851 4.73862 9.20884 0.5 14.6493 0.5C20.0897 0.5 24.5 4.73862 24.5 9.96721Z" stroke="white" stroke-linecap="round" stroke-linejoin="round"/>
</svg>
