<svg width="16" height="18" viewBox="0 0 16 18" fill="none" xmlns="http://www.w3.org/2000/svg">
<path d="M5.21949 2.56046C5.21949 2.83661 5.44335 3.06046 5.71949 3.06046C5.99563 3.06046 6.21949 2.83661 6.21949 2.56046H5.21949ZM8.61759 2.56046C8.61759 2.83661 8.84145 3.06046 9.11759 3.06046C9.39373 3.06046 9.61759 2.83661 9.61759 2.56046H8.61759ZM12.8955 10.619L12.5119 10.9396L12.8955 10.619ZM14.4894 13.4743L14.9835 13.3978L14.4894 13.4743ZM7.49765 1.79913C7.2215 1.79913 6.99765 2.02299 6.99765 2.29913C6.99765 2.57527 7.2215 2.79913 7.49765 2.79913V1.79913ZM12.7184 6.77691L12.2209 6.82618L12.7184 6.77691ZM2.10642 10.619L2.49006 10.9396H2.49006L2.10642 10.619ZM0.512523 13.4743L1.00664 13.5507L0.512523 13.4743ZM7.50431 2.79913C7.78045 2.79913 8.00431 2.57527 8.00431 2.29913C8.00431 2.02299 7.78045 1.79913 7.50431 1.79913V2.79913ZM2.28351 6.77691L1.78595 6.72763L2.28351 6.77691ZM9.63723 14.649V14.9076H10.6372V14.649H9.63723ZM5.29736 14.9076V14.649H4.29736V14.9076H5.29736ZM7.4673 17C6.25488 17 5.29736 16.0494 5.29736 14.9076H4.29736C4.29736 16.6293 5.73058 18 7.4673 18V17ZM9.63723 14.9076C9.63723 16.0494 8.67971 17 7.4673 17V18C9.20401 18 10.6372 16.6293 10.6372 14.9076H9.63723ZM6.21949 2.56046C6.21949 1.99458 6.38132 1.60515 6.59271 1.36459C6.80117 1.12737 7.08687 1 7.41854 1V0C6.81185 0 6.24802 0.24193 5.84154 0.704478C5.43801 1.16369 5.21949 1.80449 5.21949 2.56046H6.21949ZM7.41854 1C7.7502 1 8.0359 1.12737 8.24436 1.36459C8.45576 1.60515 8.61759 1.99458 8.61759 2.56046H9.61759C9.61759 1.80449 9.39907 1.16369 8.99553 0.704479C8.58906 0.24193 8.02523 0 7.41854 0V1ZM12.5119 10.9396C12.6167 11.065 12.7778 11.2115 12.8946 11.3256C13.0279 11.4559 13.1691 11.6032 13.3075 11.7883C13.5794 12.1517 13.862 12.6895 13.9953 13.5507L14.9835 13.3978C14.825 12.373 14.4771 11.6823 14.1083 11.1893C13.9263 10.946 13.7447 10.7581 13.5935 10.6104C13.4258 10.4464 13.3409 10.3722 13.2792 10.2983L12.5119 10.9396ZM7.49765 2.79913C7.49863 2.79913 7.49964 2.79913 7.50065 2.79913L7.5013 1.79913C7.5001 1.79913 7.49888 1.79913 7.49765 1.79913V2.79913ZM7.50065 2.79913C10.0196 2.80075 12.0248 4.84569 12.2209 6.82618L13.216 6.72763C12.9689 4.23214 10.5305 1.80108 7.5013 1.79913L7.50065 2.79913ZM12.2209 6.82618C12.3276 7.90377 12.2758 8.71216 12.2431 9.33452C12.2271 9.63771 12.2134 9.92917 12.2347 10.1773C12.2561 10.4272 12.3175 10.707 12.5119 10.9396L13.2792 10.2983C13.2766 10.2952 13.2451 10.2569 13.231 10.092C13.2168 9.92537 13.225 9.70556 13.2417 9.38702C13.2744 8.7659 13.331 7.88893 13.216 6.72763L12.2209 6.82618ZM1.72278 10.2983C1.66105 10.3722 1.57619 10.4464 1.40844 10.6104C1.2573 10.7581 1.07562 10.946 0.893662 11.1893C0.524808 11.6823 0.17699 12.373 0.0184046 13.3978L1.00664 13.5507C1.13991 12.6895 1.42253 12.1517 1.69441 11.7883C1.83282 11.6032 1.97407 11.4559 2.1074 11.3256C2.22413 11.2115 2.38528 11.065 2.49006 10.9396L1.72278 10.2983ZM7.50431 1.79913C7.50308 1.79913 7.50186 1.79913 7.50065 1.79913L7.5013 2.79913C7.50232 2.79913 7.50332 2.79913 7.50431 2.79913V1.79913ZM7.50065 1.79913C4.47145 1.80108 2.03307 4.23214 1.78595 6.72763L2.78108 6.82618C2.9772 4.84569 4.98231 2.80075 7.5013 2.79913L7.50065 1.79913ZM1.78595 6.72763C1.67095 7.88893 1.7276 8.7659 1.76025 9.38702C1.777 9.70556 1.7852 9.92537 1.77093 10.092C1.75683 10.2569 1.72536 10.2952 1.72278 10.2983L2.49006 10.9396C2.68445 10.707 2.7459 10.4272 2.76729 10.1773C2.78853 9.92917 2.77481 9.63771 2.75887 9.33452C2.72615 8.71216 2.67437 7.90377 2.78108 6.82618L1.78595 6.72763ZM1.64198 15.149H13.36V14.149H1.64198V15.149ZM0.0184046 13.3978C-0.138935 14.4145 0.74061 15.149 1.64198 15.149V14.149C1.20284 14.149 0.964802 13.8211 1.00664 13.5507L0.0184046 13.3978ZM13.9953 13.5507C14.0372 13.8211 13.7991 14.149 13.36 14.149V15.149C14.2613 15.149 15.1409 14.4145 14.9835 13.3978L13.9953 13.5507Z" fill="black"/>
</svg>
