<svg width="18" height="18" viewBox="0 0 18 18" fill="none" xmlns="http://www.w3.org/2000/svg">
<path d="M7.25342 0.5V0C6.97728 0 6.75342 0.223858 6.75342 0.5L7.25342 0.5ZM10.7466 0.5H11.2466C11.2466 0.223858 11.0227 0 10.7466 0V0.5ZM10.7466 17.5V18C11.0227 18 11.2466 17.7761 11.2466 17.5H10.7466ZM7.25342 17.5H6.75342C6.75342 17.7761 6.97728 18 7.25342 18V17.5ZM17.5 7.25342H18C18 6.97728 17.7761 6.75342 17.5 6.75342V7.25342ZM17.5 10.7466V11.2466C17.6326 11.2466 17.7598 11.1939 17.8536 11.1001C17.9473 11.0064 18 10.8792 18 10.7466H17.5ZM0.5 10.7466H0C0 11.0227 0.223858 11.2466 0.5 11.2466L0.5 10.7466ZM0.5 7.25342L0.5 6.75342C0.367392 6.75342 0.240215 6.8061 0.146447 6.89987C0.0526784 6.99364 0 7.12082 0 7.25342H0.5ZM13.7754 1.75458L14.1289 1.40102C13.9345 1.20655 13.6195 1.20565 13.4239 1.399L13.7754 1.75458ZM16.2454 4.22461L16.601 4.57612C16.7944 4.38054 16.7934 4.06552 16.599 3.87105L16.2454 4.22461ZM4.22461 16.2454L3.87105 16.599C4.06561 16.7935 4.38079 16.7943 4.57634 16.6008L4.22461 16.2454ZM1.75458 13.7754L1.39921 13.4237C1.20566 13.6192 1.20647 13.9344 1.40102 14.1289L1.75458 13.7754ZM16.2454 13.7754L16.599 14.1289C16.7917 13.9363 16.7946 13.6248 16.6055 13.4285L16.2454 13.7754ZM13.7754 16.2454L13.4189 16.596C13.5124 16.6911 13.64 16.7449 13.7733 16.7454C13.9066 16.746 14.0347 16.6933 14.1289 16.599L13.7754 16.2454ZM1.75458 4.22461L1.40103 3.87105C1.30726 3.96482 1.25458 4.092 1.25458 4.22461C1.25458 4.35721 1.30726 4.48439 1.40103 4.57816L1.75458 4.22461ZM4.22461 1.75458L4.57816 1.40102C4.3829 1.20576 4.06632 1.20576 3.87106 1.40102L4.22461 1.75458ZM14.6339 10.7466V10.2466H14.2749L14.1602 10.5867L14.6339 10.7466ZM14.2251 11.6781L13.7866 11.4377L13.6099 11.7602L13.865 12.025L14.2251 11.6781ZM11.6781 14.1131L12.0346 13.7625L11.7816 13.5053L11.4578 13.6642L11.6781 14.1131ZM10.7466 14.4742L10.6068 13.9941L10.2466 14.099V14.4742H10.7466ZM7.25342 14.401H7.75342V14.0421L7.41333 13.9273L7.25342 14.401ZM6.43836 14.0543L6.66868 13.6105L6.34545 13.4428L6.08662 13.6989L6.43836 14.0543ZM3.94569 11.5616L4.30105 11.9134L4.55723 11.6546L4.38948 11.3313L3.94569 11.5616ZM3.59898 10.7466L4.07272 10.5867L3.95793 10.2466L3.59898 10.2466L3.59898 10.7466ZM3.52582 7.25342V7.75342H3.90103L4.0059 7.39317L3.52582 7.25342ZM3.87543 6.34545L4.32528 6.56371L4.48062 6.24354L4.22898 5.9919L3.87543 6.34545ZM6.27242 3.80238L5.91886 4.15594L6.18668 4.42376L6.51702 4.23846L6.27242 3.80238ZM7.25342 3.3661L7.41333 3.83985L7.75342 3.72505V3.3661H7.25342ZM10.7466 3.29294H10.2466V3.66815L10.6068 3.77302L10.7466 3.29294ZM11.7945 3.71281L11.5642 4.1566L11.8872 4.32425L12.146 4.06839L11.7945 3.71281ZM14.2872 6.20548L13.9316 5.85396L13.6758 6.11278L13.8434 6.4358L14.2872 6.20548ZM14.7071 7.25342L14.227 7.39317L14.3318 7.75342L14.7071 7.75342V7.25342ZM7.25342 1H10.7466V0H7.25342V1ZM10.7466 17H7.25342V18H10.7466V17ZM17 7.25342V10.7466H18V7.25342H17ZM1 10.7466V7.25342H0V10.7466H1ZM13.4218 2.10813L15.8919 4.57816L16.599 3.87105L14.1289 1.40102L13.4218 2.10813ZM4.57816 15.8919L2.10813 13.4218L1.40102 14.1289L3.87105 16.599L4.57816 15.8919ZM15.8919 13.4218L13.4218 15.8919L14.1289 16.599L16.599 14.1289L15.8919 13.4218ZM2.10813 4.57816L4.57816 2.10813L3.87106 1.40102L1.40103 3.87105L2.10813 4.57816ZM14.1602 10.5867C14.0602 10.8828 13.9348 11.1674 13.7866 11.4377L14.6635 11.9184C14.8396 11.5971 14.9887 11.2588 15.1076 10.9065L14.1602 10.5867ZM11.4578 13.6642C11.1863 13.7975 10.9018 13.9082 10.6068 13.9941L10.8863 14.9543C11.2373 14.8521 11.5756 14.7204 11.8984 14.5619L11.4578 13.6642ZM7.41333 13.9273C7.15576 13.8403 6.90698 13.7342 6.66868 13.6105L6.20804 14.4981C6.49128 14.6451 6.78712 14.7713 7.09352 14.8748L7.41333 13.9273ZM4.38948 11.3313C4.26581 11.093 4.15966 10.8442 4.07272 10.5867L3.12524 10.9065C3.22866 11.2129 3.3549 11.5087 3.5019 11.792L4.38948 11.3313ZM4.0059 7.39317C4.0895 7.10594 4.1967 6.82872 4.32528 6.56371L3.42558 6.1272C3.27272 6.44226 3.14521 6.77198 3.04575 7.11368L4.0059 7.39317ZM6.51702 4.23846C6.80083 4.07927 7.10061 3.9454 7.41333 3.83985L7.09352 2.89236C6.7215 3.01794 6.36505 3.17714 6.02781 3.3663L6.51702 4.23846ZM10.6068 3.77302C10.9406 3.87018 11.2609 3.9992 11.5642 4.1566L12.0248 3.26902C11.6643 3.08192 11.2834 2.92846 10.8863 2.81287L10.6068 3.77302ZM13.8434 6.4358C14.0008 6.7391 14.1298 7.05939 14.227 7.39317L15.1871 7.11368C15.0715 6.71658 14.9181 6.33567 14.731 5.97516L13.8434 6.4358ZM7.75342 3.3661V0.5H6.75342V3.3661H7.75342ZM10.2466 0.5V3.29294H11.2466V0.5H10.2466ZM3.87106 2.10813L5.91886 4.15594L6.62597 3.44883L4.57816 1.40102L3.87106 2.10813ZM4.22898 5.9919L2.10813 3.87105L1.40103 4.57816L3.52187 6.69901L4.22898 5.9919ZM12.146 4.06839L14.1269 2.11016L13.4239 1.399L11.443 3.35723L12.146 4.06839ZM15.8898 3.87309L13.9316 5.85396L14.6428 6.557L16.601 4.57612L15.8898 3.87309ZM14.7071 7.75342L17.5 7.75342V6.75342L14.7071 6.75342V7.75342ZM17.5 10.2466L14.6339 10.2466V11.2466L17.5 11.2466V10.2466ZM13.865 12.025L15.8853 14.1223L16.6055 13.4285L14.5852 11.3312L13.865 12.025ZM14.1319 15.8948L12.0346 13.7625L11.3216 14.4637L13.4189 16.596L14.1319 15.8948ZM10.2466 14.4742V17.5H11.2466V14.4742H10.2466ZM7.75342 17.5V14.401H6.75342V17.5H7.75342ZM6.08662 13.6989L3.87288 15.8901L4.57634 16.6008L6.79009 14.4097L6.08662 13.6989ZM2.10994 14.1271L4.30105 11.9134L3.59032 11.2099L1.39921 13.4237L2.10994 14.1271ZM3.59898 10.2466L0.5 10.2466L0.5 11.2466L3.59898 11.2466L3.59898 10.2466ZM0.5 7.75342L3.52582 7.75342L3.52582 6.75342L0.5 6.75342L0.5 7.75342ZM10.9223 8.58453C11.1374 9.65918 10.4453 10.6694 9.38173 10.8529L9.5518 11.8383C11.1767 11.5579 12.227 10.0079 11.9029 8.38831L10.9223 8.58453ZM9.38173 10.8529C8.30767 11.0383 7.25202 10.313 7.03498 9.22841L6.05442 9.42463C6.37653 11.0343 7.93738 12.117 9.5518 11.8383L9.38173 10.8529ZM7.03498 9.22841C6.81993 8.15376 7.51202 7.14357 8.57557 6.96002L8.40551 5.97459C6.78059 6.25502 5.73032 7.80506 6.05442 9.42463L7.03498 9.22841ZM8.57557 6.96002C9.64963 6.77466 10.7053 7.49995 10.9223 8.58453L11.9029 8.38831C11.5808 6.77866 10.0199 5.69598 8.40551 5.97459L8.57557 6.96002Z" fill="black"/>
</svg>
