<svg width="25" height="24" viewBox="0 0 25 24" fill="none" xmlns="http://www.w3.org/2000/svg">
<path d="M2.30949 11.5696L2.30949 11.0696L2.30949 11.5696ZM1.1826 8.44831L1.49014 8.84254H1.49014L1.1826 8.44831ZM22.8259 8.44831L22.5184 8.84254L22.8259 8.44831ZM21.6991 11.5696V12.0696V11.5696ZM13.1312 0.885293L13.4387 0.491064V0.491064L13.1312 0.885293ZM10.8774 0.885294L10.5698 0.491064V0.491064L10.8774 0.885294ZM12.0043 16.7683V17.2683V16.7683ZM15.1668 19.8062H15.6668H15.1668ZM8.84177 19.8062L8.34177 19.8062V19.8062H8.84177ZM8.34177 23.5C8.34177 23.7761 8.56563 24 8.84177 24C9.11791 24 9.34177 23.7761 9.34177 23.5H8.34177ZM14.6668 23.5C14.6668 23.7761 14.8906 24 15.1668 24C15.4429 24 15.6668 23.7761 15.6668 23.5H14.6668ZM20.3324 11.386V21.7467H21.3324V11.386H20.3324ZM19.0307 23H5.33813V24H19.0307V23ZM4.03647 21.7467V11.386H3.03647V21.7467H4.03647ZM5.33813 23C4.60632 23 4.03647 22.4261 4.03647 21.7467H3.03647C3.03647 23.0039 4.07988 24 5.33813 24V23ZM20.3324 21.7467C20.3324 22.4261 19.7626 23 19.0307 23V24C20.289 24 21.3324 23.0039 21.3324 21.7467H20.3324ZM12.8236 1.27952L22.5184 8.84254L23.1335 8.05408L13.4387 0.491064L12.8236 1.27952ZM21.6991 11.0696L2.30949 11.0696L2.30949 12.0696L21.6991 12.0696V11.0696ZM1.49014 8.84254L11.1849 1.27952L10.5698 0.491064L0.875056 8.05408L1.49014 8.84254ZM2.30949 11.0696C1.05174 11.0696 0.561666 9.56686 1.49014 8.84254L0.875056 8.05408C-0.852672 9.4019 0.162911 12.0696 2.30949 12.0696L2.30949 11.0696ZM22.5184 8.84254C23.4469 9.56685 22.9568 11.0696 21.6991 11.0696V12.0696C23.8456 12.0696 24.8612 9.4019 23.1335 8.05408L22.5184 8.84254ZM13.4387 0.491064C12.5994 -0.163688 11.4091 -0.163688 10.5698 0.491064L11.1849 1.27952C11.6627 0.906826 12.3459 0.906826 12.8236 1.27952L13.4387 0.491064ZM12.0043 17.2683C13.4939 17.2683 14.6668 18.4233 14.6668 19.8062H15.6668C15.6668 17.8335 14.0079 16.2683 12.0043 16.2683V17.2683ZM9.34177 19.8062C9.34177 18.4233 10.5147 17.2683 12.0043 17.2683V16.2683C10.0007 16.2683 8.34177 17.8335 8.34177 19.8062L9.34177 19.8062ZM9.34177 23.5V19.8062H8.34177V23.5H9.34177ZM14.6668 19.8062L14.6668 23.5H15.6668L15.6668 19.8062H14.6668Z" fill="#00278C"/>
</svg>
